Simulation
nRows=42
nColumns=15
endheader
time  TH_x TH_y TH_z SC_y  SC_z  SC_x  AC_y  AC_z  AC_x  GH_y  GH_z  GH_yy  EL_x  PS_y
1.9499999999999993  0.000000  0.000000  0.000000  -30.3030416733283  8.793638760655762  23.125175451404825  62.74942551732645  12.930663934963732  0.06507817725489616  49.160110944689684  59.20665695666108  -45.034176117433816  22.43735519722863  0.000000
1.9889999999999992  0.000000  0.000000  0.000000  -30.03996585161703  8.447325664643731  22.91177749334839  62.58034645879663  12.413081716980537  -0.8405109826686462  49.64483325260785  58.394846039136425  -44.61569454428612  22.635469102741908  0.000000
2.027999999999999  0.000000  0.000000  0.000000  -29.747191427215732  8.055633603380333  22.686073434120303  62.39986914867357  11.841043604665444  -1.8160282564235102  50.1583211976852  57.47338589946619  -44.19819678957036  22.82827931208905  0.000000
2.0669999999999993  0.000000  0.000000  0.000000  -29.425650981064557  7.624646600678293  22.44402043965855  62.20682930079785  11.22415404132275  -2.841023417696241  50.69022662304954  56.450812526999236  -43.7809868998055  23.00179601083822  0.000000
2.1059999999999994  0.000000  0.000000  0.000000  -29.077011874142094  7.1595365166672895  22.179508228210498  61.99896282893503  10.571734503974982  -3.898237978315715  51.22447890959498  55.340267277887406  -43.34569498771186  23.14478915226411  0.000000
2.144999999999999  0.000000  0.000000  0.000000  -28.70451968915609  6.664330080513841  21.88471622481827  61.773672479056465  9.893348084956799  -4.972902828125933  51.740278108157675  54.15731194453209  -42.861273391454176  23.251212293789724  0.000000
2.1839999999999993  0.000000  0.000000  0.000000  -28.314470208148762  6.142004247802981  21.54989239050821  61.529544030062034  9.19932303931944  -6.050550577945375  52.21429438306596  52.91753823345484  -42.29265354538901  23.3229990212996  0.000000
2.2229999999999994  0.000000  0.000000  0.000000  -27.91708621158388  5.595192479113186  21.161990211127776  61.268228279611655  8.500771531526008  -7.113690119278967  52.62161915262425  51.635388800771665  -41.60674487442813  23.37116067853731  0.000000
2.261999999999999  0.000000  0.000000  0.000000  -27.527640252277372  5.02734325407862  20.70251822544846  60.99613427687491  7.808424420278155  -8.137611721726984  52.934200388700106  50.32448585015305  -40.772799523847965  23.414017390553646  0.000000
2.3009999999999993  0.000000  0.000000  0.000000  -27.16829571175038  4.445077176204345  20.145276447864614  60.72561098049003  7.130507820097785  -9.085729848061069  53.11562288971367  48.997967396858925  -39.75931051199158  23.471605151321906  0.000000
2.339999999999999  0.000000  0.000000  0.000000  -26.864027114427504  3.8594349467346807  19.459399746188183  60.470844774286356  6.474816431390006  -9.912545916164987  53.11915968429977  47.66424347457983  -38.530460012676805  23.55966741929995  0.000000
2.378999999999999  0.000000  0.000000  0.000000  -26.634136368200405  3.283991924265557  18.619176322872804  60.240624796640475  5.852914084571054  -10.57678383345561  52.89575961844168  46.32185928270276  -37.0480250470011  23.688888741556532  0.000000
2.4179999999999993  0.000000  0.000000  0.000000  -26.48802592846062  2.731259539162159  17.613527394442876  60.03340040343699  5.279128237297447  -11.052619007132165  52.406346126840454  44.960036683484056  -35.277204477248944  23.8694034605923  0.000000
2.456999999999999  0.000000  0.000000  0.000000  -26.424205877436865  2.209423536552538  16.449946334242185  59.83593002985903  4.76940801862469  -11.33731917653026  51.63260767892686  43.56509768450874  -33.19472407797321  24.113340286960717  0.000000
2.495999999999999  0.000000  0.000000  0.000000  -26.43360167365516  1.724008069681388  15.152306528328584  59.63080047976792  4.33726561752905  -11.447660431064872  50.575241617657255  42.126286182576365  -30.796125881723196  24.429903814336267  0.000000
2.5349999999999993  0.000000  0.000000  0.000000  -26.505181553264123  1.2796096749213124  13.75457444572368  59.404407634349994  3.9884086865354043  -11.410402430872265  49.24715721436152  40.63987146997241  -28.100897017641895  24.819624797998515  0.000000
2.573999999999999  0.000000  0.000000  0.000000  -26.6282920527385  0.8784103228198686  12.294612669349055  59.149864762358305  3.7212540923652915  -11.256295513422467  47.67115160326371  39.10930831917451  -25.153342097503653  25.271483976500743  0.000000
2.612999999999999  0.000000  0.000000  0.000000  -26.792449423923372  0.51977920001393  10.809284325514502  58.86727335655706  3.5285557294641334  -11.015615726418604  45.87813345811748  37.542522635382205  -22.019110971120625  25.761814382291977  0.000000
2.6519999999999992  0.000000  0.000000  0.000000  -26.987876031458484  0.20050158608511862  9.331647839977437  58.56127443275926  3.3996250355525404  -10.716338598649859  43.90708906488674  35.94862430736946  -18.778413492762333  26.25687506705069  0.000000
2.690999999999999  0.000000  0.000000  0.000000  -27.206654530546885  -0.08338439210053541  7.890910647416229  58.23766626215177  3.323075596051281  -10.38406469003627  41.80566516085338  34.33402822212841  -15.51583134259249  26.719389241089196  0.000000
2.729999999999999  0.000000  0.000000  0.000000  -27.443105826235527  -0.3343823348444938  6.514083406755924  57.90024812998233  3.288729937831772  -10.043083372603133  39.62978421446873  32.70065445320935  -12.309839524287963  27.115688801572414  0.000000
2.768999999999999  0.000000  0.000000  0.000000  -27.693163818332852  -0.5524137454645907  5.227998028739114  57.5504025701867  3.2885582339099866  -9.716729261926348  37.440861295920165  31.045717563767766  -9.22535537183505  27.421033271865152  0.000000
2.807999999999999  0.000000  0.000000  0.000000  -27.953227878334157  -0.7346418731425344  4.060619612330336  57.187859830572755  3.3154446802666526  -9.427091350600827  35.30055785330398  29.363629152611036  -6.310719260255155  27.622491390106163  0.000000
2.846999999999999  0.000000  0.000000  0.000000  -28.219421092961596  -0.877024959840099  3.040066093564646  56.81405960199467  3.361243553510166  -9.193986136530151  33.263359206804424  27.64935260986052  -3.6002087942700496  27.71641835217694  0.000000
2.885999999999999  0.000000  0.000000  0.000000  -28.48643637811977  -0.9764843047215399  2.191330822363296  56.433708828276735  3.4160156308468888  -9.033129843139498  31.36997137986378  25.90206057069548  -1.1174929665215565  27.705501014188624  0.000000
2.924999999999999  0.000000  0.000000  0.000000  -28.74648671046196  -1.0316418715073317  1.534905714146042  56.052526065700434  3.468081635158745  -8.955821461648977  29.644588592840133  24.126300678804476  1.1238530905173452  27.599174315100235  0.000000
2.963999999999999  0.000000  0.000000  0.000000  -28.989061384683964  -1.0414178414915136  1.0849064009294862  55.67339990728444  3.5055749871450717  -8.970558489736973  28.095783105276944  22.33220252522026  3.120424545207524  27.415452704748056  0.000000
3.002999999999999  0.000000  0.000000  0.000000  -29.202035375502216  -1.0042787699874662  0.8451877418581646  55.29572783917573  3.5196272530176946  -9.082540192478774  26.719514147617826  20.5352413617762  4.875632124871713  27.18130922796658  0.000000
3.041999999999999  0.000000  0.000000  0.000000  -29.37436505464625  -0.9212738043872473  0.8063034540178895  54.919387930838724  3.5046527705339705  -9.289719700917841  25.504081687281413  18.75819700651274  6.391329607020383  26.92599751619777  0.000000
3.080999999999999  0.000000  0.000000  0.000000  -29.501539336763273  -0.8003267597720046  0.9453533669361865  54.55318032260321  3.455473896032034  -9.577950590160885  24.43514805275606  17.033637157931274  7.657000821622606  26.670641056123575  0.000000
3.1199999999999988  0.000000  0.000000  0.000000  -29.59094818581242  -0.6569334358826456  1.2290252640413455  54.218963602475725  3.365500060575739  -9.92017807795705  23.501386922834833  15.403409620460073  8.645733252472361  26.42416788629235  0.000000
3.158999999999999  0.000000  0.000000  0.000000  -29.659905576080376  -0.5102776371797846  1.6179188624603447  53.94528279610618  3.229931086751303  -10.281585992546221  22.69815959124153  13.911980245450286  9.321629342751185  26.18923615225584  0.000000
3.197999999999999  0.000000  0.000000  0.000000  -29.726778964409238  -0.37695724761743393  2.0704012415056505  53.754154455309376  3.0519622514064073  -10.627907056506  22.027600877768066  12.59597407455466  9.65321287235837  25.972327735326502  0.000000
3.2369999999999988  0.000000  0.000000  0.000000  -29.80168695997157  -0.2664071060845305  2.5439614547790814  53.651855987868394  2.84654970571088  -10.93165704849884  21.49445368750839  11.477105459902509  9.623875250487634  25.78837674345344  0.000000
3.275999999999999  0.000000  0.000000  0.000000  -29.882855105959248  -0.18090399851178363  2.9967740220387746  53.629565478222446  2.6385948444905054  -11.173472570981957  21.101382200307942  10.56082202385016  9.235455060295253  25.655240230760786  0.000000
3.3149999999999986  0.000000  0.000000  0.000000  -29.962038597347405  -0.11970610631796734  3.389846621263975  53.672941920987775  2.4560390247919752  -11.339484332758353  20.845965541552324  9.84160112928289  8.505371160437269  25.58454358420155  0.000000
3.3539999999999988  0.000000  0.000000  0.000000  -30.03348895687395  -0.0829196042329071  3.69141018253971  53.77124771928566  2.321272238675758  -11.41891344206228  20.72180966271675  9.309467139632016  7.462423121034739  25.575991494088992  0.000000
3.392999999999999  0.000000  0.000000  0.000000  -30.097489999534485  -0.07174246803711147  3.882696024868604  53.91833263362961  2.24561276384105  -11.40675994564771  20.722046232763365  8.952452056130232  6.1446134121786775  25.620726493273256  0.000000
3.4319999999999986  0.000000  0.000000  0.000000  -30.158123037377198  -0.08553281699339092  3.958458568088513  54.10719561004268  2.2316890612451927  -11.306570554878297  20.843694131353896  8.75497116751783  4.599097383300595  25.709574467528252  0.000000
3.4709999999999988  0.000000  0.000000  0.000000  -30.21917169694209  -0.1185069411737926  3.925489986192157  54.325158556285075  2.2770343527919477  -11.130224090315771  21.090690400572196  8.695465055186897  2.882413666083843  25.83789828148109  0.000000
3.509999999999999  0.000000  0.000000  0.000000  -30.2819276472766  -0.1601429612531819  3.800955994958131  54.554560349166096  2.3763318396983135  -10.896337931502373  21.474412664102882  8.74647291158386  1.0581098790294992  26.004195031231937  0.000000
3.5489999999999986  0.000000  0.000000  0.000000  -30.344709323187146  -0.19800776490423416  3.6093439929722586  54.77731150413738  2.5227494740440854  -10.626128642918394  22.01085295894623  8.876543914356011  -0.8087399388525826  26.204308821010624  0.000000
